<svg width="21" height="33" viewBox="0 0 21 33" fill="none" xmlns="http://www.w3.org/2000/svg">
<path d="M15.9269 31.9066L15.9265 31.9062L1.13811 17.9706L15.9269 31.9066ZM15.9269 31.9066C16.7685 32.698 18.1196 32.6974 18.9623 31.907L18.9627 31.9066M15.9269 31.9066H18.9627M18.9627 31.9066C19.8216 31.099 19.8216 29.7743 18.9627 28.9667L5.73356 16.5007L18.9611 4.03481C18.9611 4.03475 18.9612 4.03469 18.9613 4.03463C19.8203 3.22676 19.8195 1.90255 18.9615 1.09379L18.9611 1.09335M18.9627 31.9066L18.9611 1.09335M18.9611 1.09335C18.1197 0.302215 16.7666 0.302215 15.9252 1.09335L15.9248 1.09373M18.9611 1.09335L15.9248 1.09373M15.9248 1.09373L1.1361 15.0296L1.13558 15.0301M15.9248 1.09373L1.13558 15.0301M1.13558 15.0301C0.288143 15.8309 0.287417 17.1702 1.13774 17.9703L1.13558 15.0301Z" fill="white" stroke="white"/>
</svg>
