<svg width="15" height="15" viewBox="0 0 15 15" fill="none" xmlns="http://www.w3.org/2000/svg">
<g clip-path="url(#clip0_1_4769)">
<path d="M7.11895 0C3.20094 0 -0.00976562 3.21071 -0.00976562 7.12871C-0.00976562 11.0467 3.20094 14.2574 7.11895 14.2574C11.037 14.2574 14.2477 11.0467 14.2477 7.12871C14.2477 3.21071 11.037 0 7.11895 0ZM7.11895 11.7234C4.58767 11.7234 2.52427 9.65993 2.52427 7.12871C2.52427 4.59743 4.58767 2.53403 7.11895 2.53403C9.65022 2.53403 11.7136 4.59743 11.7136 7.12871C11.7136 9.65993 9.65022 11.7234 7.11895 11.7234Z" fill="#FDBF00"/>
<path d="M14.2479 7.12871C14.2479 11.0467 11.0371 14.2574 7.11914 14.2574V11.7234C9.65042 11.7234 11.7138 9.65993 11.7138 7.12871C11.7138 4.59743 9.65042 2.53403 7.11914 2.53403V0C11.0371 0 14.2479 3.21071 14.2479 7.12871Z" fill="#FF9100"/>
<path d="M7.11855 1.69861C4.1278 1.69861 1.68848 4.13794 1.68848 7.12868C1.68848 10.1194 4.1278 12.5588 7.11855 12.5588C10.1093 12.5588 12.5486 10.1194 12.5486 7.12868C12.5486 4.13794 10.1093 1.69861 7.11855 1.69861ZM7.11855 9.25056L4.99667 7.12868L7.11855 5.00675L9.24043 7.12868L7.11855 9.25056Z" fill="#FFDA2D"/>
<path d="M12.5492 7.12868C12.5492 10.1194 10.1099 12.5588 7.11914 12.5588V9.25056L9.24102 7.12868L7.11914 5.00675V1.69861C10.1099 1.69861 12.5492 4.13794 12.5492 7.12868Z" fill="#FDBF00"/>
<path d="M5.86523 3.36938H8.37142V4.20478H5.86523V3.36938Z" fill="#FDBF00"/>
<path d="M5.86523 10.0526H8.37142V10.888H5.86523V10.0526Z" fill="#FDBF00"/>
<path d="M3.35938 5.87561H4.19477V8.3818H3.35938V5.87561Z" fill="#FDBF00"/>
<path d="M10.043 5.87561H10.8784V8.3818H10.043V5.87561Z" fill="#FF9100"/>
<path d="M7.11914 3.36938H8.37223V4.20478H7.11914V3.36938Z" fill="#FF9100"/>
<path d="M7.11914 10.0526H8.37223V10.888H7.11914V10.0526Z" fill="#FF9100"/>
</g>
<defs>
<clipPath id="clip0_1_4769">
<rect width="14.2574" height="14.2574" fill="white" transform="translate(-0.00976562)"/>
</clipPath>
</defs>
</svg>
