<svg width="12" height="14" viewBox="0 0 12 14" fill="none" xmlns="http://www.w3.org/2000/svg">
<path d="M11.0021 13.7414H0.986254C0.747901 13.7414 0.554688 13.5482 0.554688 13.3099C0.554688 11.0074 2.42119 9.14087 4.72367 9.14087H7.26465C9.56712 9.14087 11.4336 11.0074 11.4336 13.3099C11.4336 13.5482 11.2404 13.7414 11.0021 13.7414Z" fill="url(#paint0_linear_1_4842)"/>
<path d="M5.99447 11.0154C6.89912 11.0154 7.63249 10.2821 7.63249 9.3774C7.63249 9.30218 7.62696 9.22832 7.61716 9.1558C7.50102 9.14609 7.3836 9.14087 7.26494 9.14087H4.72396C4.6053 9.14087 4.48789 9.14609 4.37177 9.1558C4.36197 9.22832 4.35645 9.30221 4.35645 9.3774C4.35641 10.2821 5.08981 11.0154 5.99447 11.0154Z" fill="url(#paint1_linear_1_4842)"/>
<path d="M7.2646 9.14087H5.69434V13.7414H11.002C11.2404 13.7414 11.4336 13.5482 11.4336 13.3099C11.4336 11.0074 9.56708 9.14087 7.2646 9.14087Z" fill="url(#paint2_linear_1_4842)"/>
<path d="M0.554688 13.3097C0.554688 13.548 0.747901 13.7412 0.986254 13.7412H11.0021C11.2404 13.7412 11.4336 13.548 11.4336 13.3097C11.4336 12.5815 11.2467 11.897 10.9186 11.3013H1.0697C0.741557 11.897 0.554688 12.5815 0.554688 13.3097Z" fill="url(#paint3_linear_1_4842)"/>
<path d="M5.99411 10.5848C6.66072 10.5848 7.20111 10.0444 7.20111 9.37778C7.20111 8.71117 6.66072 8.17078 5.99411 8.17078C5.3275 8.17078 4.78711 8.71117 4.78711 9.37778C4.78711 10.0444 5.3275 10.5848 5.99411 10.5848Z" fill="url(#paint4_linear_1_4842)"/>
<path d="M5.99411 10.5848C6.66072 10.5848 7.20111 10.0444 7.20111 9.37778C7.20111 8.71117 6.66072 8.17078 5.99411 8.17078C5.3275 8.17078 4.78711 8.71117 4.78711 9.37778C4.78711 10.0444 5.3275 10.5848 5.99411 10.5848Z" fill="url(#paint5_linear_1_4842)"/>
<path d="M1.99707 5.96256C1.99707 5.40568 2.38362 4.93908 2.90303 4.81648C3.04188 4.78369 3.1746 4.89106 3.1746 5.03373V6.89138C3.1746 7.03405 3.04188 7.14142 2.90303 7.10863C2.38365 6.98603 1.99707 6.51943 1.99707 5.96256Z" fill="url(#paint6_linear_1_4842)"/>
<path d="M9.99198 5.96231C9.99198 5.40544 9.60543 4.93884 9.08602 4.81623C8.94717 4.78345 8.81445 4.89082 8.81445 5.03349V6.89113C8.81445 7.0338 8.94717 7.14117 9.08602 7.10839C9.60543 6.98578 9.99198 6.51919 9.99198 5.96231Z" fill="url(#paint7_linear_1_4842)"/>
<path d="M6.08564 9.51973H5.90369C4.21968 9.51973 2.85449 8.15458 2.85449 6.47054V4.67822C2.85449 2.99421 4.21965 1.62903 5.90369 1.62903H6.08564C7.76965 1.62903 9.13483 2.99418 9.13483 4.67822V6.47054C9.1348 8.15458 7.76965 9.51973 6.08564 9.51973Z" fill="url(#paint8_linear_1_4842)"/>
<path d="M6.16812 7.77524H5.82118C5.53204 7.77524 5.31312 7.51394 5.36375 7.22926L5.52676 6.31292C5.54753 6.1962 5.649 6.11121 5.76754 6.11121H6.22178C6.34032 6.11121 6.4418 6.19623 6.46257 6.31292L6.62558 7.22926C6.67618 7.51394 6.45728 7.77524 6.16812 7.77524Z" fill="url(#paint9_linear_1_4842)"/>
<path d="M6.16812 7.77524H5.82118C5.53204 7.77524 5.31312 7.51394 5.36375 7.22926L5.52676 6.31292C5.54753 6.1962 5.649 6.11121 5.76754 6.11121H6.22178C6.34032 6.11121 6.4418 6.19623 6.46257 6.31292L6.62558 7.22926C6.67618 7.51394 6.45728 7.77524 6.16812 7.77524Z" fill="url(#paint10_linear_1_4842)"/>
<path d="M5.82118 7.77524H6.16812C6.45725 7.77524 6.67618 7.51394 6.62555 7.22926L6.46254 6.31292C6.44177 6.1962 6.34029 6.11121 6.22175 6.11121H5.76754C5.649 6.11121 5.54753 6.19623 5.52676 6.31292L5.36375 7.22926C5.31312 7.51394 5.53204 7.77524 5.82118 7.77524Z" fill="url(#paint11_linear_1_4842)"/>
<path d="M4.62544 6.51834C4.37765 6.51834 4.17676 6.31744 4.17676 6.06965V5.83956C4.17676 5.59176 4.37765 5.39087 4.62544 5.39087C4.87324 5.39087 5.07413 5.59176 5.07413 5.83956V6.06965C5.07413 6.31744 4.87324 6.51834 4.62544 6.51834Z" fill="url(#paint12_linear_1_4842)"/>
<path d="M7.36275 6.51822C7.11496 6.51822 6.91406 6.31732 6.91406 6.06953V5.83943C6.91406 5.59164 7.11496 5.39075 7.36275 5.39075C7.61054 5.39075 7.81144 5.59164 7.81144 5.83943V6.06953C7.81144 6.31732 7.61057 6.51822 7.36275 6.51822Z" fill="url(#paint13_linear_1_4842)"/>
<path d="M2.02637 4.16801C2.02637 4.73672 2.18501 5.10861 2.40326 5.35121C2.41112 5.35995 2.41911 5.36848 2.42721 5.37677C2.89709 5.85781 3.71721 5.50806 3.71721 4.83559C3.71721 4.44127 3.87384 4.0631 4.15266 3.78428L4.28899 3.64795C4.78484 3.15209 4.44113 2.29986 3.73988 2.29303C3.73478 2.29297 3.72971 2.29297 3.72461 2.29297C2.78662 2.293 2.02637 3.13245 2.02637 4.16801Z" fill="url(#paint14_linear_1_4842)"/>
<path d="M9.88389 3.60542C9.82212 3.3885 9.80493 3.16241 9.82093 2.93741C9.82372 2.89801 9.82515 2.85825 9.82515 2.81815C9.82515 1.63337 8.8647 0.673218 7.67992 0.673218H7.6781C6.98122 0.673218 6.30842 0.900733 5.73518 1.297C5.40458 1.52554 4.93222 1.66858 4.40789 1.66858C3.97004 1.66858 3.56828 1.56877 3.25519 1.40272C3.02282 1.27948 2.73365 1.3381 2.57796 1.5501C2.31711 1.90526 2.16309 2.34369 2.16309 2.81815C2.16309 2.97842 2.18585 3.13354 2.22865 3.28016C2.42323 3.95254 3.03308 4.44855 3.76222 4.47253C3.78013 4.4021 3.8029 4.3335 3.83052 4.26672L3.8314 4.26462C3.8766 4.15601 3.99945 4.11057 4.10327 4.16594C4.55572 4.40739 5.23465 4.56102 5.99403 4.56102C6.67433 4.56102 7.29003 4.43774 7.7362 4.23849C7.93357 4.15033 8.16573 4.25467 8.22295 4.46197C8.25437 4.58296 8.27088 4.70836 8.27088 4.83549C8.27088 5.50796 9.09097 5.85772 9.56088 5.37667C9.56898 5.36838 9.57696 5.35985 9.58483 5.35111C9.80308 5.10851 9.96175 4.73659 9.96175 4.16791C9.96169 3.9719 9.93443 3.78297 9.88389 3.60542Z" fill="url(#paint15_linear_1_4842)"/>
<defs>
<linearGradient id="paint0_linear_1_4842" x1="4.22171" y1="9.59918" x2="6.71357" y2="14.1417" gradientUnits="userSpaceOnUse">
<stop stop-color="#B3DAFE"/>
<stop offset="1" stop-color="#0182FC"/>
</linearGradient>
<linearGradient id="paint1_linear_1_4842" x1="4.18557" y1="7.99731" x2="8.34038" y2="11.7626" gradientUnits="userSpaceOnUse">
<stop stop-color="#314DC9" stop-opacity="0"/>
<stop offset="0.2761" stop-color="#304BC4" stop-opacity="0.276"/>
<stop offset="0.5628" stop-color="#2B45B8" stop-opacity="0.563"/>
<stop offset="0.8535" stop-color="#243BA3" stop-opacity="0.854"/>
<stop offset="1" stop-color="#1F3596"/>
</linearGradient>
<linearGradient id="paint2_linear_1_4842" x1="9.22515" y1="11.3211" x2="10.9347" y2="11.0831" gradientUnits="userSpaceOnUse">
<stop stop-color="#314DC9" stop-opacity="0"/>
<stop offset="0.2761" stop-color="#304BC4" stop-opacity="0.276"/>
<stop offset="0.5628" stop-color="#2B45B8" stop-opacity="0.563"/>
<stop offset="0.8535" stop-color="#243BA3" stop-opacity="0.854"/>
<stop offset="1" stop-color="#1F3596"/>
</linearGradient>
<linearGradient id="paint3_linear_1_4842" x1="5.99417" y1="12.8327" x2="5.99417" y2="13.7416" gradientUnits="userSpaceOnUse">
<stop stop-color="#314DC9" stop-opacity="0"/>
<stop offset="0.2761" stop-color="#304BC4" stop-opacity="0.276"/>
<stop offset="0.5628" stop-color="#2B45B8" stop-opacity="0.563"/>
<stop offset="0.8535" stop-color="#243BA3" stop-opacity="0.854"/>
<stop offset="1" stop-color="#1F3596"/>
</linearGradient>
<linearGradient id="paint4_linear_1_4842" x1="5.22135" y1="8.60501" x2="6.52206" y2="9.90572" gradientUnits="userSpaceOnUse">
<stop stop-color="#FFDFCF"/>
<stop offset="1" stop-color="#FFA78F"/>
</linearGradient>
<linearGradient id="paint5_linear_1_4842" x1="5.99411" y1="9.91744" x2="5.99411" y2="8.96427" gradientUnits="userSpaceOnUse">
<stop stop-color="#F89580" stop-opacity="0"/>
<stop offset="0.9972" stop-color="#C5715A"/>
</linearGradient>
<linearGradient id="paint6_linear_1_4842" x1="2.34358" y1="5.45346" x2="3.29071" y2="6.40056" gradientUnits="userSpaceOnUse">
<stop stop-color="#FFDFCF"/>
<stop offset="1" stop-color="#FFA78F"/>
</linearGradient>
<linearGradient id="paint7_linear_1_4842" x1="8.44736" y1="5.2733" x2="9.77269" y2="6.59863" gradientUnits="userSpaceOnUse">
<stop stop-color="#FFDFCF"/>
<stop offset="1" stop-color="#FFA78F"/>
</linearGradient>
<linearGradient id="paint8_linear_1_4842" x1="5.58723" y1="5.14828" x2="7.94592" y2="7.61522" gradientUnits="userSpaceOnUse">
<stop stop-color="#FFDFCF"/>
<stop offset="1" stop-color="#FFA78F"/>
</linearGradient>
<linearGradient id="paint9_linear_1_4842" x1="5.99466" y1="6.8554" x2="5.99466" y2="7.94672" gradientUnits="userSpaceOnUse">
<stop stop-color="#F89580" stop-opacity="0"/>
<stop offset="0.2616" stop-color="#F1907B" stop-opacity="0.262"/>
<stop offset="0.6357" stop-color="#DE826C" stop-opacity="0.638"/>
<stop offset="0.9972" stop-color="#C5715A"/>
</linearGradient>
<linearGradient id="paint10_linear_1_4842" x1="6.18299" y1="6.98581" x2="6.82692" y2="7.14242" gradientUnits="userSpaceOnUse">
<stop stop-color="#F89580" stop-opacity="0"/>
<stop offset="0.2616" stop-color="#F1907B" stop-opacity="0.262"/>
<stop offset="0.6357" stop-color="#DE826C" stop-opacity="0.638"/>
<stop offset="0.9972" stop-color="#C5715A"/>
</linearGradient>
<linearGradient id="paint11_linear_1_4842" x1="5.80634" y1="6.98581" x2="5.1624" y2="7.14242" gradientUnits="userSpaceOnUse">
<stop stop-color="#FFDDCD" stop-opacity="0"/>
<stop offset="0.9972" stop-color="#FFDDCD"/>
</linearGradient>
<linearGradient id="paint12_linear_1_4842" x1="4.33282" y1="5.7392" x2="4.95577" y2="6.19775" gradientUnits="userSpaceOnUse">
<stop stop-color="#5A5A5A"/>
<stop offset="1" stop-color="#444444"/>
</linearGradient>
<linearGradient id="paint13_linear_1_4842" x1="7.03973" y1="5.71221" x2="7.59348" y2="6.12754" gradientUnits="userSpaceOnUse">
<stop stop-color="#5A5A5A"/>
<stop offset="1" stop-color="#444444"/>
</linearGradient>
<linearGradient id="paint14_linear_1_4842" x1="3.01472" y1="3.71285" x2="4.03898" y2="4.41975" gradientUnits="userSpaceOnUse">
<stop stop-color="#5A5A5A"/>
<stop offset="1" stop-color="#444444"/>
</linearGradient>
<linearGradient id="paint15_linear_1_4842" x1="5.54914" y1="1.34924" x2="6.61668" y2="4.78273" gradientUnits="userSpaceOnUse">
<stop stop-color="#5A5A5A"/>
<stop offset="1" stop-color="#444444"/>
</linearGradient>
</defs>
</svg>
