<svg width="14" height="18" viewBox="0 0 14 18" fill="none" xmlns="http://www.w3.org/2000/svg">
<path d="M6.51758 3.46228H7.74676V4.87535H6.51758V3.46228Z" fill="url(#paint0_linear_1_4784)"/>
<path d="M8.76618 2.69434V3.00406C8.76618 3.44282 8.40807 3.80093 7.96931 3.80093H6.29492C5.85615 3.80093 5.49805 3.44282 5.49805 3.00406V2.69434C5.49805 2.49432 5.65936 2.33301 5.85938 2.33301H8.40485C8.60164 2.33301 8.76618 2.49432 8.76618 2.69434Z" fill="url(#paint1_linear_1_4784)"/>
<path d="M6.29424 3.8013H7.96863C8.41062 3.8013 8.7655 3.44319 8.7655 3.00443V2.83667H5.49414V3.00443C5.49414 3.44319 5.85225 3.8013 6.29424 3.8013Z" fill="url(#paint2_linear_1_4784)"/>
<path d="M6.29424 3.8013H7.96863C8.41062 3.8013 8.7655 3.44319 8.7655 3.00443V2.83667H5.49414V3.00443C5.49414 3.44319 5.85225 3.8013 6.29424 3.8013Z" fill="url(#paint3_linear_1_4784)"/>
<path d="M7.20703 2.33301H8.40395C8.60397 2.33301 8.76528 2.49432 8.76528 2.69434V3.00406C8.76528 3.44282 8.40718 3.80093 7.96841 3.80093H7.20703V2.33301Z" fill="url(#paint4_linear_1_4784)"/>
<path d="M9.39129 1.39117V2.42355C9.39129 2.70101 9.16868 2.92361 8.89123 2.92361H5.36822C5.09077 2.92361 4.86816 2.70101 4.86816 2.42355V1.39117C4.86816 1.11372 5.09077 0.891113 5.36822 0.891113H8.89123C9.16868 0.891113 9.39129 1.11372 9.39129 1.39117Z" fill="url(#paint5_linear_1_4784)"/>
<path d="M5.36822 2.92292H8.89123C9.16868 2.92292 9.39129 2.70032 9.39129 2.42286V1.58728H4.86816V2.42286C4.86816 2.70032 5.09077 2.92292 5.36822 2.92292Z" fill="url(#paint6_linear_1_4784)"/>
<path d="M7.23633 0.891113H8.89137C9.16882 0.891113 9.39143 1.11372 9.39143 1.39117V2.42355C9.39143 2.70101 9.16882 2.92361 8.89137 2.92361H7.23633V0.891113Z" fill="url(#paint7_linear_1_4784)"/>
<path d="M12.6144 6.25573L11.611 7.25907C11.3529 6.93968 11.0626 6.64932 10.7432 6.39123L11.7465 5.38788C11.882 5.25238 12.1014 5.25238 12.2369 5.38788L12.6176 5.76534C12.7499 5.90407 12.7499 6.12345 12.6144 6.25573Z" fill="url(#paint8_linear_1_4784)"/>
<path d="M2.51342 5.38888L3.51676 6.39222C3.19737 6.65032 2.90701 6.94068 2.64892 7.26007L1.64557 6.25672C1.51007 6.12122 1.51007 5.90184 1.64557 5.76634L2.02626 5.38888C2.15854 5.2566 2.37792 5.2566 2.51342 5.38888Z" fill="url(#paint9_linear_1_4784)"/>
<path d="M7.18194 5.13318H7.0787C3.94284 5.13963 1.39737 7.6851 1.3877 10.8242V10.9274C1.39415 14.0633 3.93961 16.6087 7.0787 16.6184H7.18194C10.3178 16.612 12.8633 14.0665 12.8729 10.9274V10.8242C12.8633 7.6851 10.3178 5.13963 7.18194 5.13318Z" fill="url(#paint10_linear_1_4784)"/>
<path d="M7.18194 5.13318H7.0787C3.94284 5.13963 1.39737 7.6851 1.3877 10.8242V10.9274C1.39415 14.0633 3.93961 16.6087 7.0787 16.6184H7.18194C10.3178 16.612 12.8633 14.0665 12.8729 10.9274V10.8242C12.8633 7.6851 10.3178 5.13963 7.18194 5.13318Z" fill="url(#paint11_linear_1_4784)"/>
<path d="M7.18194 5.13318H7.0787C3.94284 5.13963 1.39737 7.6851 1.3877 10.8242V10.9274C1.39415 14.0633 3.93961 16.6087 7.0787 16.6184H7.18194C10.3178 16.612 12.8633 14.0665 12.8729 10.9274V10.8242C12.8633 7.6851 10.3178 5.13963 7.18194 5.13318Z" fill="url(#paint12_linear_1_4784)"/>
<path d="M7.18194 5.13318H7.0787C3.94284 5.13963 1.39737 7.6851 1.3877 10.8242V10.9274C1.39415 14.0633 3.93961 16.6087 7.0787 16.6184H7.18194C10.3178 16.612 12.8633 14.0665 12.8729 10.9274V10.8242C12.8633 7.6851 10.3178 5.13963 7.18194 5.13318Z" fill="url(#paint13_linear_1_4784)"/>
<path d="M7.12983 14.6079C7.25243 14.6079 7.35244 14.7079 7.35244 14.8305V15.437C7.35244 15.5596 7.25243 15.6596 7.12983 15.6596C7.00724 15.6596 6.90723 15.5596 6.90723 15.437V14.8305C6.90723 14.7079 7.00724 14.6079 7.12983 14.6079Z" fill="url(#paint14_linear_1_4784)"/>
<path d="M3.39744 10.8717C3.39744 10.9943 3.29743 11.0943 3.17483 11.0943H2.56831C2.44572 11.0943 2.3457 10.9943 2.3457 10.8717C2.3457 10.7491 2.44572 10.649 2.56831 10.649H3.17483C3.29743 10.649 3.39744 10.7491 3.39744 10.8717Z" fill="url(#paint15_linear_1_4784)"/>
<path d="M11.918 10.8717C11.918 10.9943 11.8179 11.0943 11.6953 11.0943H11.0888C10.9662 11.0943 10.8662 10.9943 10.8662 10.8717C10.8662 10.7491 10.9662 10.649 11.0888 10.649H11.6953C11.8179 10.649 11.918 10.7491 11.918 10.8717Z" fill="url(#paint16_linear_1_4784)"/>
<path d="M8.9988 7.63939C8.89234 7.57809 8.85362 7.43936 8.91815 7.3329L9.22141 6.80703C9.2827 6.70056 9.42143 6.66185 9.5279 6.72637C9.63436 6.78767 9.67307 6.9264 9.60855 7.03286L9.30529 7.55873C9.24076 7.6652 9.10526 7.70068 8.9988 7.63939Z" fill="url(#paint17_linear_1_4784)"/>
<path d="M4.73708 15.021C4.63062 14.9597 4.5919 14.821 4.65643 14.7145L4.95969 14.1886C5.02099 14.0822 5.15971 14.0434 5.26618 14.108C5.37264 14.1693 5.41136 14.308 5.34683 14.4145L5.04357 14.9403C4.98227 15.0436 4.84355 15.0823 4.73708 15.021Z" fill="url(#paint18_linear_1_4784)"/>
<path d="M10.364 12.7406C10.4253 12.6342 10.564 12.5954 10.6705 12.66L11.1963 12.9632C11.3028 13.0245 11.3415 13.1633 11.277 13.2697C11.2157 13.3762 11.077 13.4149 10.9705 13.3504L10.4446 13.0471C10.3382 12.9858 10.3027 12.8471 10.364 12.7406Z" fill="url(#paint19_linear_1_4784)"/>
<path d="M2.98507 8.4789C3.04637 8.37244 3.18509 8.33372 3.29156 8.39825L3.81743 8.70151C3.92389 8.76281 3.96261 8.90153 3.89808 9.008C3.83679 9.11446 3.69806 9.15318 3.5916 9.08865L3.06573 8.78539C2.95926 8.72409 2.92377 8.58859 2.98507 8.4789Z" fill="url(#paint20_linear_1_4784)"/>
<path d="M4.73708 6.72616C4.84355 6.66486 4.98227 6.70035 5.04357 6.80681L5.34683 7.33268C5.40813 7.43915 5.37264 7.57787 5.26618 7.63917C5.15971 7.70047 5.02099 7.66498 4.95969 7.55852L4.65643 7.03265C4.5919 6.92618 4.63062 6.78746 4.73708 6.72616Z" fill="url(#paint21_linear_1_4784)"/>
<path d="M8.99952 14.108C9.10598 14.0467 9.24471 14.0822 9.30601 14.1887L9.60927 14.7145C9.67057 14.821 9.63508 14.9597 9.52862 15.021C9.42215 15.0823 9.28343 15.0468 9.22213 14.9404L8.91887 14.4145C8.85434 14.3048 8.88983 14.1693 8.99952 14.108Z" fill="url(#paint22_linear_1_4784)"/>
<path d="M2.98507 13.2663C2.92377 13.1599 2.95926 13.0211 3.06573 12.9598L3.5916 12.6566C3.69806 12.5953 3.83679 12.6308 3.89808 12.7372C3.95938 12.8437 3.92389 12.9824 3.81743 13.0437L3.29156 13.347C3.18187 13.4115 3.04637 13.376 2.98507 13.2663Z" fill="url(#paint23_linear_1_4784)"/>
<path d="M10.364 9.00815C10.3027 8.90169 10.3382 8.76296 10.4446 8.70166L10.9705 8.3984C11.077 8.3371 11.2157 8.37259 11.277 8.47906C11.3383 8.58552 11.3028 8.72425 11.1963 8.78554L10.6705 9.08881C10.564 9.1501 10.4253 9.11462 10.364 9.00815Z" fill="url(#paint24_linear_1_4784)"/>
<path d="M7.356 6.45361L7.0721 6.8827V10.9832L6.51074 11.5736L10.4854 15.5483C11.6791 14.6933 12.5276 13.3899 12.7857 11.8833L7.356 6.45361Z" fill="url(#paint25_linear_1_4784)"/>
<path d="M12.8693 10.8206C12.8628 7.68478 10.3174 5.13932 7.17828 5.12964H7.12988V10.869H12.8693V10.8206Z" fill="url(#paint26_linear_1_4784)"/>
<path d="M7.35572 6.45361L7.12988 6.79882V10.8735H11.7788L7.35572 6.45361Z" fill="url(#paint27_linear_1_4784)"/>
<path d="M7.18809 4.33948H7.07194C3.50055 4.34916 0.603429 7.24628 0.59375 10.8144V10.9306C0.603429 14.502 3.50055 17.3991 7.06872 17.4056H7.18486C10.7563 17.3959 13.6534 14.4988 13.6598 10.9306V10.8144C13.6566 7.24628 10.7595 4.34916 7.18809 4.33948ZM12.4048 10.9209C12.3984 13.8019 10.0594 16.1409 7.17841 16.1473H7.08485C4.20386 16.1409 1.86487 13.8019 1.85842 10.9209V10.8274C1.86487 7.94636 4.20386 5.60737 7.08485 5.60092H7.17841C10.0594 5.60737 12.3984 7.94636 12.4048 10.8274V10.9209Z" fill="url(#paint28_linear_1_4784)"/>
<path d="M7.18194 5.13318H7.0787C3.94284 5.13963 1.39737 7.6851 1.3877 10.8242V10.9274C1.39415 14.0633 3.93961 16.6087 7.0787 16.6184H7.18194C10.3178 16.612 12.8633 14.0665 12.8729 10.9274V10.8242C12.8633 7.6851 10.3178 5.13963 7.18194 5.13318ZM12.1954 10.9177C12.189 13.6858 9.94356 15.9312 7.17549 15.9377H7.08515C4.31708 15.9345 2.07165 13.6858 2.0652 10.9177V10.8274C2.07165 8.05934 4.31708 5.81391 7.08515 5.80745H7.17549C9.94356 5.81391 12.189 8.05934 12.1954 10.8274V10.9177Z" fill="url(#paint29_linear_1_4784)"/>
<path d="M10.8239 7.38796C11.6723 8.28806 12.195 9.49789 12.1982 10.8303V10.9206C12.1918 13.6887 9.94633 15.9341 7.17826 15.9406H7.08792C5.75551 15.9374 4.54568 15.4147 3.64558 14.5662L2.60352 15.6083C3.76495 16.7213 5.33933 17.4053 7.07179 17.4085H7.18794C10.7593 17.3988 13.6565 14.5017 13.6629 10.9335V10.8174C13.6597 9.08493 12.9757 7.51055 11.8627 6.34912L10.8239 7.38796Z" fill="url(#paint30_linear_1_4784)"/>
<path d="M7.34994 11.027C7.34348 11.1431 7.2467 11.2302 7.13056 11.2302C7.01441 11.2302 6.92085 11.1399 6.91117 11.027L6.6434 7.16198C6.64017 7.12972 6.64663 7.09745 6.65953 7.06519L6.92731 6.39415C7.00151 6.21025 7.2596 6.21025 7.33381 6.39415L7.60158 7.06519C7.61448 7.09423 7.61771 7.12972 7.61771 7.16198L7.34994 11.027Z" fill="url(#paint31_linear_1_4784)"/>
<path d="M7.13061 11.8036C7.64555 11.8036 8.06298 11.3861 8.06298 10.8712C8.06298 10.3563 7.64555 9.93884 7.13061 9.93884C6.61568 9.93884 6.19824 10.3563 6.19824 10.8712C6.19824 11.3861 6.61568 11.8036 7.13061 11.8036Z" fill="url(#paint32_linear_1_4784)"/>
<path d="M7.13077 9.94226C7.06625 9.94226 7.00173 9.94871 6.94043 9.96162V11.7876C7.00173 11.8005 7.06625 11.807 7.13077 11.807C7.64697 11.807 8.06314 11.3908 8.06314 10.8746C8.06314 10.3584 7.64697 9.94226 7.13077 9.94226Z" fill="url(#paint33_linear_1_4784)"/>
<path d="M6.19824 10.8721C6.19824 11.3883 6.61442 11.8045 7.13061 11.8045C7.6468 11.8045 8.06298 11.3883 8.06298 10.8721C8.06298 10.8044 8.05653 10.7366 8.0404 10.6721H6.22083C6.20469 10.7399 6.19824 10.8044 6.19824 10.8721Z" fill="url(#paint34_linear_1_4784)"/>
<path d="M7.60149 10.0687L6.32715 11.3431C6.48846 11.6173 6.78849 11.8044 7.13047 11.8044C7.64666 11.8044 8.06284 11.3882 8.06284 10.872C8.06284 10.5301 7.87895 10.23 7.60149 10.0687Z" fill="url(#paint35_linear_1_4784)"/>
<path d="M11.6953 10.6503H11.0888C10.9662 10.6503 10.8662 10.7503 10.8662 10.8729H11.9212C11.918 10.7503 11.8179 10.6503 11.6953 10.6503Z" fill="url(#paint36_linear_1_4784)"/>
<path d="M8.99782 7.63939C8.89136 7.57809 8.85264 7.43936 8.91717 7.3329L9.22043 6.80703C9.28173 6.70056 9.42045 6.66185 9.52692 6.72637C9.63338 6.78767 9.6721 6.9264 9.60757 7.03286L9.30431 7.55873C9.23979 7.6652 9.10429 7.70068 8.99782 7.63939Z" fill="url(#paint37_linear_1_4784)"/>
<path d="M10.363 9.00779C10.3017 8.90132 10.3372 8.76259 10.4437 8.7013L10.9695 8.39803C11.076 8.33674 11.2147 8.37223 11.276 8.47869C11.3373 8.58515 11.3018 8.72388 11.1954 8.78518L10.6695 9.08844C10.563 9.14974 10.4243 9.11425 10.363 9.00779Z" fill="url(#paint38_linear_1_4784)"/>
<defs>
<linearGradient id="paint0_linear_1_4784" x1="6.75838" y1="4.16853" x2="7.34571" y2="4.16853" gradientUnits="userSpaceOnUse">
<stop stop-color="#3E5959"/>
<stop offset="0.42" stop-color="#3F5152"/>
<stop offset="1" stop-color="#433F43"/>
</linearGradient>
<linearGradient id="paint1_linear_1_4784" x1="7.1305" y1="2.4729" x2="7.1305" y2="3.78818" gradientUnits="userSpaceOnUse">
<stop stop-color="#99E6FC"/>
<stop offset="1" stop-color="#2ED1E2"/>
</linearGradient>
<linearGradient id="paint2_linear_1_4784" x1="7.12982" y1="3.3487" x2="7.12982" y2="3.86992" gradientUnits="userSpaceOnUse">
<stop stop-color="#017BAE" stop-opacity="0"/>
<stop offset="0.1152" stop-color="#017BAE" stop-opacity="0.038"/>
<stop offset="0.2787" stop-color="#017BAE" stop-opacity="0.145"/>
<stop offset="0.471" stop-color="#017BAE" stop-opacity="0.321"/>
<stop offset="0.6854" stop-color="#017BAE" stop-opacity="0.565"/>
<stop offset="0.9152" stop-color="#017BAE" stop-opacity="0.875"/>
<stop offset="1" stop-color="#017BAE"/>
</linearGradient>
<linearGradient id="paint3_linear_1_4784" x1="7.12982" y1="3.44642" x2="7.12982" y2="2.95452" gradientUnits="userSpaceOnUse">
<stop stop-color="#017BAE" stop-opacity="0"/>
<stop offset="0.1152" stop-color="#017BAE" stop-opacity="0.038"/>
<stop offset="0.2787" stop-color="#017BAE" stop-opacity="0.145"/>
<stop offset="0.471" stop-color="#017BAE" stop-opacity="0.321"/>
<stop offset="0.6854" stop-color="#017BAE" stop-opacity="0.565"/>
<stop offset="0.9152" stop-color="#017BAE" stop-opacity="0.875"/>
<stop offset="1" stop-color="#017BAE"/>
</linearGradient>
<linearGradient id="paint4_linear_1_4784" x1="8.18808" y1="3.06639" x2="8.81761" y2="3.06639" gradientUnits="userSpaceOnUse">
<stop stop-color="#017BAE" stop-opacity="0"/>
<stop offset="0.1152" stop-color="#017BAE" stop-opacity="0.038"/>
<stop offset="0.2787" stop-color="#017BAE" stop-opacity="0.145"/>
<stop offset="0.471" stop-color="#017BAE" stop-opacity="0.321"/>
<stop offset="0.6854" stop-color="#017BAE" stop-opacity="0.565"/>
<stop offset="0.9152" stop-color="#017BAE" stop-opacity="0.875"/>
<stop offset="1" stop-color="#017BAE"/>
</linearGradient>
<linearGradient id="paint5_linear_1_4784" x1="7.12973" y1="1.0862" x2="7.12973" y2="2.90635" gradientUnits="userSpaceOnUse">
<stop stop-color="#99E6FC"/>
<stop offset="1" stop-color="#2ED1E2"/>
</linearGradient>
<linearGradient id="paint6_linear_1_4784" x1="7.12973" y1="2.29695" x2="7.12973" y2="3.01823" gradientUnits="userSpaceOnUse">
<stop stop-color="#017BAE" stop-opacity="0"/>
<stop offset="0.1152" stop-color="#017BAE" stop-opacity="0.038"/>
<stop offset="0.2787" stop-color="#017BAE" stop-opacity="0.145"/>
<stop offset="0.471" stop-color="#017BAE" stop-opacity="0.321"/>
<stop offset="0.6854" stop-color="#017BAE" stop-opacity="0.565"/>
<stop offset="0.9152" stop-color="#017BAE" stop-opacity="0.875"/>
<stop offset="1" stop-color="#017BAE"/>
</linearGradient>
<linearGradient id="paint7_linear_1_4784" x1="8.59465" y1="1.90753" x2="9.46579" y2="1.90753" gradientUnits="userSpaceOnUse">
<stop stop-color="#017BAE" stop-opacity="0"/>
<stop offset="0.1152" stop-color="#017BAE" stop-opacity="0.038"/>
<stop offset="0.2787" stop-color="#017BAE" stop-opacity="0.145"/>
<stop offset="0.471" stop-color="#017BAE" stop-opacity="0.321"/>
<stop offset="0.6854" stop-color="#017BAE" stop-opacity="0.565"/>
<stop offset="0.9152" stop-color="#017BAE" stop-opacity="0.875"/>
<stop offset="1" stop-color="#017BAE"/>
</linearGradient>
<linearGradient id="paint8_linear_1_4784" x1="11.5467" y1="5.9495" x2="11.9234" y2="6.32615" gradientUnits="userSpaceOnUse">
<stop stop-color="#3E5959"/>
<stop offset="0.42" stop-color="#3F5152"/>
<stop offset="1" stop-color="#433F43"/>
</linearGradient>
<linearGradient id="paint9_linear_1_4784" x1="2.63469" y1="6.02902" x2="2.2329" y2="6.43081" gradientUnits="userSpaceOnUse">
<stop stop-color="#3E5959"/>
<stop offset="0.42" stop-color="#3F5152"/>
<stop offset="1" stop-color="#433F43"/>
</linearGradient>
<linearGradient id="paint10_linear_1_4784" x1="4.45271" y1="8.19638" x2="10.5159" y2="14.2595" gradientUnits="userSpaceOnUse">
<stop stop-color="#EAF6FF"/>
<stop offset="1" stop-color="#B4D2E2"/>
</linearGradient>
<linearGradient id="paint11_linear_1_4784" x1="4.22787" y1="10.874" x2="1.16351" y2="10.874" gradientUnits="userSpaceOnUse">
<stop stop-color="#B3DAFE" stop-opacity="0"/>
<stop offset="0.0951337" stop-color="#B1D8FC" stop-opacity="0.033"/>
<stop offset="0.2381" stop-color="#ABD4FA" stop-opacity="0.126"/>
<stop offset="0.4111" stop-color="#A3CDF5" stop-opacity="0.277"/>
<stop offset="0.6075" stop-color="#97C3EE" stop-opacity="0.487"/>
<stop offset="0.8208" stop-color="#88B7E6" stop-opacity="0.752"/>
<stop offset="1" stop-color="#7BACDF"/>
</linearGradient>
<linearGradient id="paint12_linear_1_4784" x1="5.51858" y1="9.26225" x2="3.20236" y2="6.94604" gradientUnits="userSpaceOnUse">
<stop stop-color="#B3DAFE" stop-opacity="0"/>
<stop offset="0.0951337" stop-color="#B1D8FC" stop-opacity="0.033"/>
<stop offset="0.2381" stop-color="#ABD4FA" stop-opacity="0.126"/>
<stop offset="0.4111" stop-color="#A3CDF5" stop-opacity="0.277"/>
<stop offset="0.6075" stop-color="#97C3EE" stop-opacity="0.487"/>
<stop offset="0.8208" stop-color="#88B7E6" stop-opacity="0.752"/>
<stop offset="1" stop-color="#7BACDF"/>
</linearGradient>
<linearGradient id="paint13_linear_1_4784" x1="7.13032" y1="8.11034" x2="7.13032" y2="5.5914" gradientUnits="userSpaceOnUse">
<stop stop-color="#B3DAFE" stop-opacity="0"/>
<stop offset="0.0951337" stop-color="#B1D8FC" stop-opacity="0.033"/>
<stop offset="0.2381" stop-color="#ABD4FA" stop-opacity="0.126"/>
<stop offset="0.4111" stop-color="#A3CDF5" stop-opacity="0.277"/>
<stop offset="0.6075" stop-color="#97C3EE" stop-opacity="0.487"/>
<stop offset="0.8208" stop-color="#88B7E6" stop-opacity="0.752"/>
<stop offset="1" stop-color="#7BACDF"/>
</linearGradient>
<linearGradient id="paint14_linear_1_4784" x1="4.46939" y1="12.8267" x2="7.04224" y2="15.0578" gradientUnits="userSpaceOnUse">
<stop stop-color="#B3DAFE" stop-opacity="0"/>
<stop offset="0.0951337" stop-color="#B1D8FC" stop-opacity="0.033"/>
<stop offset="0.2381" stop-color="#ABD4FA" stop-opacity="0.126"/>
<stop offset="0.4111" stop-color="#A3CDF5" stop-opacity="0.277"/>
<stop offset="0.6075" stop-color="#97C3EE" stop-opacity="0.487"/>
<stop offset="0.8208" stop-color="#88B7E6" stop-opacity="0.752"/>
<stop offset="1" stop-color="#7BACDF"/>
</linearGradient>
<linearGradient id="paint15_linear_1_4784" x1="5.17685" y1="8.21263" x2="2.94575" y2="10.7855" gradientUnits="userSpaceOnUse">
<stop stop-color="#B3DAFE" stop-opacity="0"/>
<stop offset="0.0951337" stop-color="#B1D8FC" stop-opacity="0.033"/>
<stop offset="0.2381" stop-color="#ABD4FA" stop-opacity="0.126"/>
<stop offset="0.4111" stop-color="#A3CDF5" stop-opacity="0.277"/>
<stop offset="0.6075" stop-color="#97C3EE" stop-opacity="0.487"/>
<stop offset="0.8208" stop-color="#88B7E6" stop-opacity="0.752"/>
<stop offset="1" stop-color="#7BACDF"/>
</linearGradient>
<linearGradient id="paint16_linear_1_4784" x1="13.6977" y1="8.21263" x2="11.4666" y2="10.7855" gradientUnits="userSpaceOnUse">
<stop stop-color="#B3DAFE" stop-opacity="0"/>
<stop offset="0.0951337" stop-color="#B1D8FC" stop-opacity="0.033"/>
<stop offset="0.2381" stop-color="#ABD4FA" stop-opacity="0.126"/>
<stop offset="0.4111" stop-color="#A3CDF5" stop-opacity="0.277"/>
<stop offset="0.6075" stop-color="#97C3EE" stop-opacity="0.487"/>
<stop offset="0.8208" stop-color="#88B7E6" stop-opacity="0.752"/>
<stop offset="1" stop-color="#7BACDF"/>
</linearGradient>
<linearGradient id="paint17_linear_1_4784" x1="10.4145" y1="10.5102" x2="9.30205" y2="7.2916" gradientUnits="userSpaceOnUse">
<stop stop-color="#B3DAFE" stop-opacity="0"/>
<stop offset="0.0951337" stop-color="#B1D8FC" stop-opacity="0.033"/>
<stop offset="0.2381" stop-color="#ABD4FA" stop-opacity="0.126"/>
<stop offset="0.4111" stop-color="#A3CDF5" stop-opacity="0.277"/>
<stop offset="0.6075" stop-color="#97C3EE" stop-opacity="0.487"/>
<stop offset="0.8208" stop-color="#88B7E6" stop-opacity="0.752"/>
<stop offset="1" stop-color="#7BACDF"/>
</linearGradient>
<linearGradient id="paint18_linear_1_4784" x1="6.15424" y1="17.8892" x2="5.0417" y2="14.6706" gradientUnits="userSpaceOnUse">
<stop stop-color="#B3DAFE" stop-opacity="0"/>
<stop offset="0.0951337" stop-color="#B1D8FC" stop-opacity="0.033"/>
<stop offset="0.2381" stop-color="#ABD4FA" stop-opacity="0.126"/>
<stop offset="0.4111" stop-color="#A3CDF5" stop-opacity="0.277"/>
<stop offset="0.6075" stop-color="#97C3EE" stop-opacity="0.487"/>
<stop offset="0.8208" stop-color="#88B7E6" stop-opacity="0.752"/>
<stop offset="1" stop-color="#7BACDF"/>
</linearGradient>
<linearGradient id="paint19_linear_1_4784" x1="7.49454" y1="14.1553" x2="10.7131" y2="13.0428" gradientUnits="userSpaceOnUse">
<stop stop-color="#B3DAFE" stop-opacity="0"/>
<stop offset="0.0951337" stop-color="#B1D8FC" stop-opacity="0.033"/>
<stop offset="0.2381" stop-color="#ABD4FA" stop-opacity="0.126"/>
<stop offset="0.4111" stop-color="#A3CDF5" stop-opacity="0.277"/>
<stop offset="0.6075" stop-color="#97C3EE" stop-opacity="0.487"/>
<stop offset="0.8208" stop-color="#88B7E6" stop-opacity="0.752"/>
<stop offset="1" stop-color="#7BACDF"/>
</linearGradient>
<linearGradient id="paint20_linear_1_4784" x1="0.114953" y1="9.89499" x2="3.33353" y2="8.78249" gradientUnits="userSpaceOnUse">
<stop stop-color="#B3DAFE" stop-opacity="0"/>
<stop offset="0.0951337" stop-color="#B1D8FC" stop-opacity="0.033"/>
<stop offset="0.2381" stop-color="#ABD4FA" stop-opacity="0.126"/>
<stop offset="0.4111" stop-color="#A3CDF5" stop-opacity="0.277"/>
<stop offset="0.6075" stop-color="#97C3EE" stop-opacity="0.487"/>
<stop offset="0.8208" stop-color="#88B7E6" stop-opacity="0.752"/>
<stop offset="1" stop-color="#7BACDF"/>
</linearGradient>
<linearGradient id="paint21_linear_1_4784" x1="3.85016" y1="10.5116" x2="4.96266" y2="7.29305" gradientUnits="userSpaceOnUse">
<stop stop-color="#B3DAFE" stop-opacity="0"/>
<stop offset="0.0951337" stop-color="#B1D8FC" stop-opacity="0.033"/>
<stop offset="0.2381" stop-color="#ABD4FA" stop-opacity="0.126"/>
<stop offset="0.4111" stop-color="#A3CDF5" stop-opacity="0.277"/>
<stop offset="0.6075" stop-color="#97C3EE" stop-opacity="0.487"/>
<stop offset="0.8208" stop-color="#88B7E6" stop-opacity="0.752"/>
<stop offset="1" stop-color="#7BACDF"/>
</linearGradient>
<linearGradient id="paint22_linear_1_4784" x1="8.11118" y1="17.8909" x2="9.22368" y2="14.6723" gradientUnits="userSpaceOnUse">
<stop stop-color="#B3DAFE" stop-opacity="0"/>
<stop offset="0.0951337" stop-color="#B1D8FC" stop-opacity="0.033"/>
<stop offset="0.2381" stop-color="#ABD4FA" stop-opacity="0.126"/>
<stop offset="0.4111" stop-color="#A3CDF5" stop-opacity="0.277"/>
<stop offset="0.6075" stop-color="#97C3EE" stop-opacity="0.487"/>
<stop offset="0.8208" stop-color="#88B7E6" stop-opacity="0.752"/>
<stop offset="1" stop-color="#7BACDF"/>
</linearGradient>
<linearGradient id="paint23_linear_1_4784" x1="6.77048" y1="14.1568" x2="3.5519" y2="13.0443" gradientUnits="userSpaceOnUse">
<stop stop-color="#B3DAFE" stop-opacity="0"/>
<stop offset="0.0951337" stop-color="#B1D8FC" stop-opacity="0.033"/>
<stop offset="0.2381" stop-color="#ABD4FA" stop-opacity="0.126"/>
<stop offset="0.4111" stop-color="#A3CDF5" stop-opacity="0.277"/>
<stop offset="0.6075" stop-color="#97C3EE" stop-opacity="0.487"/>
<stop offset="0.8208" stop-color="#88B7E6" stop-opacity="0.752"/>
<stop offset="1" stop-color="#7BACDF"/>
</linearGradient>
<linearGradient id="paint24_linear_1_4784" x1="14.1501" y1="9.89676" x2="10.9315" y2="8.78427" gradientUnits="userSpaceOnUse">
<stop stop-color="#B3DAFE" stop-opacity="0"/>
<stop offset="0.0951337" stop-color="#B1D8FC" stop-opacity="0.033"/>
<stop offset="0.2381" stop-color="#ABD4FA" stop-opacity="0.126"/>
<stop offset="0.4111" stop-color="#A3CDF5" stop-opacity="0.277"/>
<stop offset="0.6075" stop-color="#97C3EE" stop-opacity="0.487"/>
<stop offset="0.8208" stop-color="#88B7E6" stop-opacity="0.752"/>
<stop offset="1" stop-color="#7BACDF"/>
</linearGradient>
<linearGradient id="paint25_linear_1_4784" x1="8.79595" y1="10.9811" x2="6.64234" y2="10.6222" gradientUnits="userSpaceOnUse">
<stop stop-color="#B3DAFE" stop-opacity="0"/>
<stop offset="0.0951337" stop-color="#B1D8FC" stop-opacity="0.033"/>
<stop offset="0.2381" stop-color="#ABD4FA" stop-opacity="0.126"/>
<stop offset="0.4111" stop-color="#A3CDF5" stop-opacity="0.277"/>
<stop offset="0.6075" stop-color="#97C3EE" stop-opacity="0.487"/>
<stop offset="0.8208" stop-color="#88B7E6" stop-opacity="0.752"/>
<stop offset="1" stop-color="#7BACDF"/>
</linearGradient>
<linearGradient id="paint26_linear_1_4784" x1="8.31399" y1="7.38155" x2="10.5328" y2="10.8567" gradientUnits="userSpaceOnUse">
<stop stop-color="#FD4755"/>
<stop offset="1" stop-color="#CA2E43"/>
</linearGradient>
<linearGradient id="paint27_linear_1_4784" x1="9.28969" y1="8.85258" x2="6.89134" y2="8.63233" gradientUnits="userSpaceOnUse">
<stop stop-color="#A72B2B" stop-opacity="0"/>
<stop offset="0.1285" stop-color="#A52A2B" stop-opacity="0.07"/>
<stop offset="0.352" stop-color="#A2292E" stop-opacity="0.259"/>
<stop offset="0.6437" stop-color="#9D2731" stop-opacity="0.566"/>
<stop offset="0.9892" stop-color="#972436" stop-opacity="0.986"/>
<stop offset="1" stop-color="#972437"/>
</linearGradient>
<linearGradient id="paint28_linear_1_4784" x1="2.46685" y1="6.21077" x2="13.2145" y2="16.9584" gradientUnits="userSpaceOnUse">
<stop stop-color="#99E6FC"/>
<stop offset="1" stop-color="#2ED1E2"/>
</linearGradient>
<linearGradient id="paint29_linear_1_4784" x1="11.0829" y1="14.8266" x2="1.51474" y2="5.25845" gradientUnits="userSpaceOnUse">
<stop stop-color="#99E6FC"/>
<stop offset="1" stop-color="#2ED1E2"/>
</linearGradient>
<linearGradient id="paint30_linear_1_4784" x1="10.5664" y1="14.3102" x2="11.9992" y2="15.7431" gradientUnits="userSpaceOnUse">
<stop stop-color="#017BAE" stop-opacity="0"/>
<stop offset="0.1152" stop-color="#017BAE" stop-opacity="0.038"/>
<stop offset="0.2787" stop-color="#017BAE" stop-opacity="0.145"/>
<stop offset="0.471" stop-color="#017BAE" stop-opacity="0.321"/>
<stop offset="0.6854" stop-color="#017BAE" stop-opacity="0.565"/>
<stop offset="0.9152" stop-color="#017BAE" stop-opacity="0.875"/>
<stop offset="1" stop-color="#017BAE"/>
</linearGradient>
<linearGradient id="paint31_linear_1_4784" x1="6.88911" y1="8.74333" x2="7.375" y2="8.74333" gradientUnits="userSpaceOnUse">
<stop stop-color="#3E5959"/>
<stop offset="0.42" stop-color="#3F5152"/>
<stop offset="1" stop-color="#433F43"/>
</linearGradient>
<linearGradient id="paint32_linear_1_4784" x1="6.79167" y1="10.5337" x2="7.50872" y2="11.2508" gradientUnits="userSpaceOnUse">
<stop stop-color="#FEF0AE"/>
<stop offset="1" stop-color="#FAC600"/>
</linearGradient>
<linearGradient id="paint33_linear_1_4784" x1="7.13836" y1="10.8737" x2="7.945" y2="11.1019" gradientUnits="userSpaceOnUse">
<stop stop-color="#FE9738" stop-opacity="0"/>
<stop offset="0.1025" stop-color="#FE9738" stop-opacity="0.02"/>
<stop offset="0.2265" stop-color="#FE9738" stop-opacity="0.078"/>
<stop offset="0.3615" stop-color="#FE9738" stop-opacity="0.175"/>
<stop offset="0.5046" stop-color="#FE9738" stop-opacity="0.31"/>
<stop offset="0.6539" stop-color="#FE9738" stop-opacity="0.483"/>
<stop offset="0.8085" stop-color="#FE9738" stop-opacity="0.695"/>
<stop offset="0.9645" stop-color="#FE9738" stop-opacity="0.94"/>
<stop offset="1" stop-color="#FE9738"/>
</linearGradient>
<linearGradient id="paint34_linear_1_4784" x1="7.13061" y1="11.0059" x2="7.13061" y2="11.721" gradientUnits="userSpaceOnUse">
<stop stop-color="#FE9738" stop-opacity="0"/>
<stop offset="0.1025" stop-color="#FE9738" stop-opacity="0.02"/>
<stop offset="0.2265" stop-color="#FE9738" stop-opacity="0.078"/>
<stop offset="0.3615" stop-color="#FE9738" stop-opacity="0.175"/>
<stop offset="0.5046" stop-color="#FE9738" stop-opacity="0.31"/>
<stop offset="0.6539" stop-color="#FE9738" stop-opacity="0.483"/>
<stop offset="0.8085" stop-color="#FE9738" stop-opacity="0.695"/>
<stop offset="0.9645" stop-color="#FE9738" stop-opacity="0.94"/>
<stop offset="1" stop-color="#FE9738"/>
</linearGradient>
<linearGradient id="paint35_linear_1_4784" x1="7.51174" y1="11.2548" x2="7.85343" y2="11.5964" gradientUnits="userSpaceOnUse">
<stop stop-color="#FEF0AE" stop-opacity="0"/>
<stop offset="0.0979226" stop-color="#FEF0AE" stop-opacity="0.021"/>
<stop offset="0.2219" stop-color="#FEF0AF" stop-opacity="0.083"/>
<stop offset="0.3599" stop-color="#FEF0B2" stop-opacity="0.185"/>
<stop offset="0.5083" stop-color="#FEF1B5" stop-opacity="0.327"/>
<stop offset="0.6648" stop-color="#FEF2BA" stop-opacity="0.509"/>
<stop offset="0.8281" stop-color="#FEF3BF" stop-opacity="0.732"/>
<stop offset="0.9942" stop-color="#FEF4C5" stop-opacity="0.991"/>
<stop offset="1" stop-color="#FFF5C6"/>
</linearGradient>
<linearGradient id="paint36_linear_1_4784" x1="8.71553" y1="8.5034" x2="11.307" y2="10.7507" gradientUnits="userSpaceOnUse">
<stop stop-color="#A72B2B" stop-opacity="0"/>
<stop offset="0.1285" stop-color="#A52A2B" stop-opacity="0.07"/>
<stop offset="0.352" stop-color="#A2292E" stop-opacity="0.259"/>
<stop offset="0.6437" stop-color="#9D2731" stop-opacity="0.566"/>
<stop offset="0.9892" stop-color="#972436" stop-opacity="0.986"/>
<stop offset="1" stop-color="#972437"/>
</linearGradient>
<linearGradient id="paint37_linear_1_4784" x1="10.4136" y1="10.5102" x2="9.30107" y2="7.2916" gradientUnits="userSpaceOnUse">
<stop stop-color="#A72B2B" stop-opacity="0"/>
<stop offset="0.1285" stop-color="#A52A2B" stop-opacity="0.07"/>
<stop offset="0.352" stop-color="#A2292E" stop-opacity="0.259"/>
<stop offset="0.6437" stop-color="#9D2731" stop-opacity="0.566"/>
<stop offset="0.9892" stop-color="#972436" stop-opacity="0.986"/>
<stop offset="1" stop-color="#972437"/>
</linearGradient>
<linearGradient id="paint38_linear_1_4784" x1="14.1491" y1="9.8964" x2="10.9305" y2="8.7839" gradientUnits="userSpaceOnUse">
<stop stop-color="#A72B2B" stop-opacity="0"/>
<stop offset="0.1285" stop-color="#A52A2B" stop-opacity="0.07"/>
<stop offset="0.352" stop-color="#A2292E" stop-opacity="0.259"/>
<stop offset="0.6437" stop-color="#9D2731" stop-opacity="0.566"/>
<stop offset="0.9892" stop-color="#972436" stop-opacity="0.986"/>
<stop offset="1" stop-color="#972437"/>
</linearGradient>
</defs>
</svg>
