<svg width="13" height="10" viewBox="0 0 13 10" fill="none" xmlns="http://www.w3.org/2000/svg">
<path d="M12.6634 0.789376C12.5574 0.666069 12.4314 0.568242 12.2928 0.501495C12.1542 0.434748 12.0056 0.400391 11.8555 0.400391C11.7054 0.400391 11.5568 0.434748 11.4182 0.501495C11.2796 0.568242 11.1536 0.666069 11.0476 0.789376L6.60148 5.95024L2.15533 0.789376C1.94107 0.540674 1.65047 0.400954 1.34746 0.400954C1.04445 0.400954 0.753845 0.540674 0.539585 0.789376C0.325325 1.03808 0.204956 1.37539 0.204956 1.72711C0.204956 2.07883 0.325325 2.41614 0.539585 2.66484L5.79934 8.77009C5.90535 8.8934 6.03128 8.99122 6.1699 9.05797C6.30853 9.12472 6.45713 9.15907 6.60721 9.15907C6.75729 9.15907 6.90589 9.12472 7.04452 9.05797C7.18314 8.99122 7.30907 8.8934 7.41508 8.77009L12.6748 2.66484C13.1103 2.1594 13.1103 1.30812 12.6634 0.789376Z" fill="white"/>
</svg>
