<svg width="18" height="15" viewBox="0 0 18 15" fill="none" xmlns="http://www.w3.org/2000/svg">
<path d="M12.692 11.4844V12.6562C12.692 13.9486 11.4303 15 9.87934 15H2.81262C1.2617 15 0 13.9486 0 12.6562V2.34375C0 1.05137 1.2617 0 2.81262 0H9.87934C11.4303 0 12.692 1.05137 12.692 2.34375V3.51562C12.692 3.83926 12.3772 4.10156 11.9888 4.10156C11.6004 4.10156 11.2857 3.83926 11.2857 3.51562V2.34375C11.2857 1.69762 10.6547 1.17188 9.87934 1.17188H2.81262C2.03723 1.17188 1.40631 1.69762 1.40631 2.34375V12.6562C1.40631 13.3024 2.03723 13.8281 2.81262 13.8281H9.87934C10.6547 13.8281 11.2857 13.3024 11.2857 12.6562V11.4844C11.2857 11.1607 11.6004 10.8984 11.9888 10.8984C12.3772 10.8984 12.692 11.1607 12.692 11.4844ZM17.4859 6.49349L15.9114 5.18143C15.6367 4.95255 15.1915 4.95255 14.9169 5.18143C14.6423 5.41019 14.6423 5.78121 14.9169 6.00998L16.0369 6.94336H7.59408C7.2057 6.94336 6.89093 7.20566 6.89093 7.5293C6.89093 7.85294 7.2057 8.11523 7.59408 8.11523H16.0369L14.9169 9.04861C14.6423 9.27738 14.6423 9.6484 14.9169 9.87717C15.0543 9.99161 15.2342 10.0488 15.4141 10.0488C15.5941 10.0488 15.774 9.99161 15.9114 9.87717L17.4859 8.5651C18.1714 7.99393 18.1714 7.06467 17.4859 6.49349Z" fill="white"/>
</svg>
