<svg width="9" height="14" viewBox="0 0 9 14" fill="none" xmlns="http://www.w3.org/2000/svg">
<path d="M0.383328 0.433392C0.261814 0.54097 0.16541 0.668751 0.0996339 0.809423C0.0338575 0.950094 0 1.10089 0 1.25319C0 1.40548 0.0338575 1.55628 0.0996339 1.69695C0.16541 1.83762 0.261814 1.9654 0.383328 2.07298L5.46912 6.58476L0.383328 11.0965C0.138243 11.314 0.000555022 11.6088 0.000555022 11.9163C0.000555022 12.2238 0.138243 12.5187 0.383328 12.7361C0.628413 12.9535 0.960819 13.0757 1.30742 13.0757C1.65402 13.0757 1.98643 12.9535 2.23152 12.7361L8.24796 7.39874C8.36947 7.29116 8.46588 7.16338 8.53165 7.02271C8.59743 6.88203 8.63128 6.73124 8.63128 6.57894C8.63128 6.42665 8.59743 6.27585 8.53165 6.13518C8.46588 5.99451 8.36947 5.86673 8.24796 5.75915L2.23152 0.421764C1.73342 -0.0201114 0.894529 -0.0201111 0.383328 0.433392Z" fill="white"/>
</svg>
