<svg width="15" height="15" viewBox="0 0 15 15" fill="none" xmlns="http://www.w3.org/2000/svg">
<mask id="path-1-inside-1_296_2927" fill="white">
<path d="M7.49999 0C5.53045 0.00105028 3.64019 0.775995 2.2367 2.15778V0H1.23566V4.00417H5.23983V3.00313H2.80877C3.41556 2.37065 4.14389 1.86729 4.95003 1.52325C5.75617 1.17921 6.62351 1.00159 7.49999 1.00104C11.0834 1.00104 13.9989 3.91658 13.9989 7.49999C13.9989 11.0834 11.0834 13.9989 7.49999 13.9989C3.91658 13.9989 1.00104 11.0834 1.00104 7.49999H0C-1.84636e-06 8.98335 0.439864 10.4334 1.26397 11.6668C2.08808 12.9001 3.25942 13.8614 4.62987 14.4291C6.00031 14.9967 7.50831 15.1453 8.96317 14.8559C10.418 14.5665 11.7544 13.8522 12.8033 12.8033C13.8522 11.7544 14.5665 10.418 14.8559 8.96317C15.1453 7.50831 14.9967 6.00031 14.4291 4.62987C13.8614 3.25942 12.9001 2.08808 11.6668 1.26397C10.4334 0.439864 8.98335 -1.84636e-06 7.49999 0Z"/>
</mask>
<path d="M7.49999 0C5.53045 0.00105028 3.64019 0.775995 2.2367 2.15778V0H1.23566V4.00417H5.23983V3.00313H2.80877C3.41556 2.37065 4.14389 1.86729 4.95003 1.52325C5.75617 1.17921 6.62351 1.00159 7.49999 1.00104C11.0834 1.00104 13.9989 3.91658 13.9989 7.49999C13.9989 11.0834 11.0834 13.9989 7.49999 13.9989C3.91658 13.9989 1.00104 11.0834 1.00104 7.49999H0C-1.84636e-06 8.98335 0.439864 10.4334 1.26397 11.6668C2.08808 12.9001 3.25942 13.8614 4.62987 14.4291C6.00031 14.9967 7.50831 15.1453 8.96317 14.8559C10.418 14.5665 11.7544 13.8522 12.8033 12.8033C13.8522 11.7544 14.5665 10.418 14.8559 8.96317C15.1453 7.50831 14.9967 6.00031 14.4291 4.62987C13.8614 3.25942 12.9001 2.08808 11.6668 1.26397C10.4334 0.439864 8.98335 -1.84636e-06 7.49999 0Z" fill="white"/>
<path d="M7.49999 0L7.49999 -4L7.49786 -4L7.49999 0ZM2.2367 2.15778H-1.7633V11.7092L5.043 5.00816L2.2367 2.15778ZM2.2367 0H6.2367V-4H2.2367V0ZM1.23566 0V-4H-2.76434V0H1.23566ZM1.23566 4.00417H-2.76434V8.00417H1.23566V4.00417ZM5.23983 4.00417V8.00417H9.23983V4.00417H5.23983ZM5.23983 3.00313H9.23983V-0.996874H5.23983V3.00313ZM2.80877 3.00313L-0.0776433 0.233896L-6.57206 7.00313H2.80877V3.00313ZM7.49999 1.00104V-2.99896L7.49749 -2.99896L7.49999 1.00104ZM1.00104 7.49999H5.00104V3.49999H1.00104V7.49999ZM0 7.49999V3.49999H-3.99999L-4 7.49999L0 7.49999ZM12.8033 12.8033L9.97487 9.97486L9.97486 9.97487L12.8033 12.8033ZM7.49786 -4C4.47899 -3.99839 1.58164 -2.81057 -0.569597 -0.692606L5.043 5.00816C5.69874 4.36256 6.58191 4.00049 7.50213 4L7.49786 -4ZM6.2367 2.15778V0H-1.7633V2.15778H6.2367ZM2.2367 -4H1.23566V4H2.2367V-4ZM-2.76434 0V4.00417H5.23566V0H-2.76434ZM1.23566 8.00417H5.23983V0.00416756H1.23566V8.00417ZM9.23983 4.00417V3.00313H1.23983V4.00417H9.23983ZM5.23983 -0.996874H2.80877V7.00313H5.23983V-0.996874ZM5.69518 5.77236C5.92895 5.52869 6.20954 5.33477 6.52011 5.20223L3.37995 -2.15572C2.07823 -1.60019 0.902178 -0.787387 -0.0776433 0.233896L5.69518 5.77236ZM6.52011 5.20223C6.83068 5.06968 7.16483 5.00125 7.5025 5.00104L7.49749 -2.99896C6.08219 -2.99807 4.68166 -2.71125 3.37995 -2.15572L6.52011 5.20223ZM7.49999 5.00104C8.87427 5.00104 9.99895 6.12572 9.99895 7.49999H17.9989C17.9989 1.70744 13.2926 -2.99896 7.49999 -2.99896V5.00104ZM9.99895 7.49999C9.99895 8.87427 8.87427 9.99895 7.49999 9.99895V17.9989C13.2926 17.9989 17.9989 13.2926 17.9989 7.49999H9.99895ZM7.49999 9.99895C6.12572 9.99895 5.00104 8.87427 5.00104 7.49999H-2.99896C-2.99896 13.2926 1.70744 17.9989 7.49999 17.9989V9.99895ZM1.00104 3.49999H0V11.5H1.00104V3.49999ZM-4 7.49999C-4 9.77447 -3.32554 11.9979 -2.06191 13.8891L4.58985 9.44449C4.20527 8.86892 4 8.19223 4 7.5L-4 7.49999ZM-2.06191 13.8891C-0.798271 15.7802 0.997784 17.2542 3.09913 18.1246L6.1606 10.7336C5.52106 10.4687 4.97444 10.0201 4.58985 9.44449L-2.06191 13.8891ZM3.09913 18.1246C5.20049 18.995 7.51275 19.2228 9.74354 18.779L8.18281 10.9327C7.50388 11.0678 6.80014 10.9985 6.1606 10.7336L3.09913 18.1246ZM9.74354 18.779C11.9743 18.3353 14.0234 17.24 15.6317 15.6317L9.97486 9.97487C9.48538 10.4644 8.86174 10.7977 8.18281 10.9327L9.74354 18.779ZM15.6317 15.6317C17.24 14.0234 18.3353 11.9743 18.779 9.74354L10.9327 8.18281C10.7977 8.86174 10.4644 9.48538 9.97487 9.97486L15.6317 15.6317ZM18.779 9.74354C19.2228 7.51275 18.995 5.20049 18.1246 3.09913L10.7336 6.1606C10.9985 6.80014 11.0678 7.50388 10.9327 8.18281L18.779 9.74354ZM18.1246 3.09913C17.2542 0.997784 15.7802 -0.798271 13.8891 -2.06191L9.44449 4.58985C10.0201 4.97444 10.4687 5.52106 10.7336 6.1606L18.1246 3.09913ZM13.8891 -2.06191C11.9979 -3.32554 9.77447 -4 7.49999 -4L7.5 4C8.19223 4 8.86892 4.20527 9.44449 4.58985L13.8891 -2.06191Z" fill="white" mask="url(#path-1-inside-1_296_2927)"/>
<mask id="path-3-inside-2_296_2927" fill="white">
<path d="M7.99166 3.00195L7.97493 8.50922H11.9958V7.50818H8.97904L8.99271 3.00502L7.99166 3.00195Z"/>
</mask>
<path d="M7.99166 3.00195L7.97493 8.50922H11.9958V7.50818H8.97904L8.99271 3.00502L7.99166 3.00195Z" fill="white"/>
<path d="M7.99166 3.00195L8.00392 -0.998028L4.00384 -1.01028L3.99168 2.9898L7.99166 3.00195ZM7.97493 8.50922L3.97495 8.49706L3.96275 12.5092H7.97493V8.50922ZM11.9958 8.50922V12.5092H15.9958V8.50922H11.9958ZM11.9958 7.50818H15.9958V3.50818H11.9958V7.50818ZM8.97904 7.50818L4.97905 7.49603L4.96687 11.5082H8.97904V7.50818ZM8.99271 3.00502L12.9927 3.01716L13.0048 -0.982712L9.00496 -0.994962L8.99271 3.00502ZM3.99168 2.9898L3.97495 8.49706L11.9749 8.52137L11.9916 3.01411L3.99168 2.9898ZM7.97493 12.5092H11.9958V4.50922H7.97493V12.5092ZM15.9958 8.50922V7.50818H7.99583V8.50922H15.9958ZM11.9958 3.50818H8.97904V11.5082H11.9958V3.50818ZM12.979 7.52032L12.9927 3.01716L4.99272 2.99288L4.97905 7.49603L12.979 7.52032ZM9.00496 -0.994962L8.00392 -0.998028L7.97941 7.00193L8.98046 7.005L9.00496 -0.994962Z" fill="white" mask="url(#path-3-inside-2_296_2927)"/>
</svg>
