<svg width="16" height="12" viewBox="0 0 16 12" fill="none" xmlns="http://www.w3.org/2000/svg">
<path d="M14.6096 5.77603C14.0346 3.17663 13.1818 1.51848 11.8149 1.11442C11.5502 1.03719 11.2757 0.998667 10.9999 1.00004C10.1596 1.00004 9.49647 1.50005 7.99989 1.50005C6.50331 1.50005 5.83893 1.00004 4.99986 1.00004C4.71259 0.998554 4.42651 1.03705 4.14985 1.11442C2.78108 1.51848 1.93545 3.17819 1.35388 5.77603C0.760122 8.4295 0.867624 10.5261 2.02826 10.9286C2.84077 11.2098 3.56734 10.6283 4.25547 9.77232C5.03673 8.79731 5.99893 8.49731 7.99989 8.49731C10.0008 8.49731 10.9255 8.79731 11.7081 9.77232C12.3956 10.6289 13.149 11.2033 13.94 10.9336C15.2218 10.4958 15.2037 8.46075 14.6096 5.77603Z" stroke="white" stroke-miterlimit="10"/>
<path d="M9.24992 5.00001C9.24992 5.06905 9.19396 5.12501 9.12492 5.12501C9.05588 5.12501 8.99991 5.06905 8.99991 5.00001C8.99991 4.93097 9.05588 4.875 9.12492 4.875C9.19396 4.875 9.24992 4.93097 9.24992 5.00001Z" fill="black" stroke="white"/>
<path d="M10.4999 6.50001C10.4752 6.50001 10.451 6.49267 10.4304 6.47892C10.4099 6.46517 10.3938 6.44563 10.3844 6.42277C10.3749 6.39991 10.3725 6.37476 10.3773 6.3505C10.3822 6.32625 10.3941 6.30397 10.4116 6.2865C10.4292 6.26903 10.4515 6.25715 10.4757 6.25236C10.5 6.24758 10.5251 6.2501 10.548 6.25961C10.5708 6.26911 10.5903 6.28519 10.604 6.30578C10.6177 6.32638 10.625 6.35058 10.6249 6.37532C10.6248 6.40842 10.6116 6.44013 10.5882 6.46351C10.5648 6.48689 10.533 6.50001 10.4999 6.50001Z" fill="black" stroke="white"/>
<path d="M10.6249 3.62501C10.6249 3.69405 10.569 3.75001 10.4999 3.75001C10.4309 3.75001 10.3749 3.69405 10.3749 3.62501C10.3749 3.55597 10.4309 3.5 10.4999 3.5C10.569 3.5 10.6249 3.55597 10.6249 3.62501Z" fill="black" stroke="white"/>
<path d="M11.9999 5.00001C11.9999 5.06905 11.944 5.12501 11.8749 5.12501C11.8059 5.12501 11.7499 5.06905 11.7499 5.00001C11.7499 4.93097 11.8059 4.875 11.8749 4.875C11.944 4.875 11.9999 4.93097 11.9999 5.00001Z" fill="black" stroke="white"/>
<path d="M4.99985 3.5V6.50003" stroke="white" stroke-linecap="round" stroke-linejoin="round"/>
<path d="M6.49989 5H3.49985" stroke="white" stroke-linecap="round" stroke-linejoin="round"/>
</svg>
