<svg width="14" height="17" viewBox="0 0 14 17" fill="none" xmlns="http://www.w3.org/2000/svg">
<path d="M9.33957 0H4.66043V1.57219H9.33957V0ZM6.2139 10.1257H7.7861V5.44652H6.2139V10.1257ZM12.4652 4.97861L13.5695 3.87433C13.2201 3.45009 12.8583 3.082 12.484 2.77005L11.3797 3.87433C10.7558 3.3877 10.082 3.01337 9.35829 2.75134C8.59715 2.47683 7.81105 2.33957 7 2.33957C5.72727 2.33957 4.54813 2.65775 3.46257 3.29412C2.40196 3.918 1.56595 4.75401 0.954545 5.80214C0.318182 6.90018 0 8.08244 0 9.34893C0 10.6154 0.318182 11.7914 0.954545 12.877C1.56595 13.9376 2.40196 14.7799 3.46257 15.4037C4.54813 16.0401 5.72727 16.3583 7 16.3583C8.27273 16.3583 9.45187 16.0401 10.5374 15.4037C11.598 14.7799 12.434 13.9376 13.0455 12.877C13.6818 11.7914 14 10.6123 14 9.33957C14 8.541 13.8627 7.76114 13.5882 7C13.3387 6.26381 12.9643 5.59002 12.4652 4.97861ZM7 14.7861C6.01426 14.7861 5.09715 14.5428 4.24866 14.0561C3.42513 13.5695 2.77629 12.9144 2.30214 12.0909C1.80303 11.2549 1.55348 10.3409 1.55348 9.34893C1.55348 8.35695 1.80303 7.43672 2.30214 6.58823C2.77629 5.77718 3.42513 5.12834 4.24866 4.64171C5.09715 4.1426 6.01426 3.89305 7 3.89305C7.98574 3.89305 8.90285 4.1426 9.75134 4.64171C10.5749 5.11586 11.2237 5.76471 11.6979 6.58823C12.197 7.43672 12.4465 8.35383 12.4465 9.33957C12.4465 10.3253 12.197 11.2424 11.6979 12.0909C11.2237 12.9144 10.5749 13.5695 9.75134 14.0561C8.90285 14.5428 7.98574 14.7861 7 14.7861Z" fill="white"/>
</svg>
