<svg width="24" height="24" viewBox="0 0 24 24" fill="none" xmlns="http://www.w3.org/2000/svg">
<circle cx="11.9442" cy="12.0003" r="10.5882" fill="url(#paint0_linear_296_77)"/>
<path d="M11.6019 0C9.30844 0 7.06646 0.703788 5.1595 2.02236C3.25254 3.34094 1.76624 5.21508 0.888562 7.4078C0.0108838 9.60051 -0.218757 12.0133 0.22868 14.3411C0.676116 16.6689 1.78053 18.807 3.40227 20.4853C5.02401 22.1635 7.09023 23.3064 9.33965 23.7694C11.5891 24.2324 13.9206 23.9948 16.0395 23.0866C18.1585 22.1783 19.9695 20.6402 21.2437 18.6668C22.5179 16.6934 23.198 14.3734 23.198 12C23.198 10.4241 22.898 8.8637 22.3153 7.4078C21.7325 5.95189 20.8784 4.62902 19.8016 3.51472C18.7248 2.40042 17.4464 1.5165 16.0395 0.913446C14.6326 0.310389 13.1247 0 11.6019 0ZM11.6019 21.6C9.76714 21.6 7.97356 21.037 6.44799 19.9821C4.92241 18.9272 3.73338 17.4279 3.03124 15.6738C2.32909 13.9196 2.14538 11.9893 2.50333 10.1271C2.86128 8.26491 3.74481 6.55436 5.0422 5.21177C6.33959 3.86919 7.99257 2.95488 9.7921 2.58446C11.5916 2.21404 13.4569 2.40416 15.152 3.13076C16.8471 3.85736 18.296 5.08781 19.3153 6.66652C20.3347 8.24524 20.8788 10.1013 20.8788 12C20.8788 14.5461 19.9014 16.9879 18.1617 18.7882C16.4219 20.5886 14.0623 21.6 11.6019 21.6ZM16.2404 10.8H12.7615V7.2C12.7615 6.88174 12.6394 6.57651 12.4219 6.35147C12.2044 6.12643 11.9095 6 11.6019 6C11.2944 6 10.9994 6.12643 10.782 6.35147C10.5645 6.57651 10.4423 6.88174 10.4423 7.2V10.8H6.9635C6.65596 10.8 6.361 10.9264 6.14354 11.1515C5.92607 11.3765 5.8039 11.6817 5.8039 12C5.8039 12.3183 5.92607 12.6235 6.14354 12.8485C6.361 13.0736 6.65596 13.2 6.9635 13.2H10.4423V16.8C10.4423 17.1183 10.5645 17.4235 10.782 17.6485C10.9994 17.8736 11.2944 18 11.6019 18C11.9095 18 12.2044 17.8736 12.4219 17.6485C12.6394 17.4235 12.7615 17.1183 12.7615 16.8V13.2H16.2404C16.5479 13.2 16.8428 13.0736 17.0603 12.8485C17.2778 12.6235 17.4 12.3183 17.4 12C17.4 11.6817 17.2778 11.3765 17.0603 11.1515C16.8428 10.9264 16.5479 10.8 16.2404 10.8Z" fill="white"/>
<defs>
<linearGradient id="paint0_linear_296_77" x1="11.9442" y1="1.41211" x2="11.9442" y2="22.5886" gradientUnits="userSpaceOnUse">
<stop stop-color="#2A6FFB"/>
<stop offset="1" stop-color="#194295"/>
</linearGradient>
</defs>
</svg>
