<svg width="16" height="16" viewBox="0 0 16 16" fill="none" xmlns="http://www.w3.org/2000/svg">
<path d="M8 10.1004C9.15983 10.1004 10.1 9.16022 10.1 8.00039C10.1 6.84056 9.15983 5.90039 8 5.90039C6.84017 5.90039 5.9 6.84056 5.9 8.00039C5.9 9.16022 6.84017 10.1004 8 10.1004Z" stroke="white" stroke-linecap="round" stroke-linejoin="round"/>
<path d="M13.3357 6.87678L12.5673 5.02136L13.6 3.8L12.2 2.4L10.9853 3.43807L9.09046 2.65882L8.65471 1H7.2867L6.84437 2.68079L4.99309 3.46117L3.8 2.4L2.4 3.8L3.41736 5.05219L2.66075 6.91241L1 7.3V8.7L2.68078 9.15885L3.46102 11.0098L2.4 12.2L3.8 13.6L5.05381 12.5782L6.8779 13.3286L7.3 15H8.7L9.12315 13.3292L10.9786 12.5608C11.2878 12.7819 12.2 13.6 12.2 13.6L13.6 12.2L12.5611 10.9746L13.3297 9.1186L14.9999 8.68404L15 7.3L13.3357 6.87678Z" stroke="white" stroke-linecap="round" stroke-linejoin="round"/>
</svg>
