<svg width="23" height="13" viewBox="0 0 23 13" fill="none" xmlns="http://www.w3.org/2000/svg">
<path d="M16.7083 0.25H6.29167C2.84376 0.25 0.0416718 3.05208 0.0416718 6.5C0.0416718 9.94792 2.84376 12.75 6.29167 12.75H16.7083C20.1563 12.75 22.9583 9.94792 22.9583 6.5C22.9583 3.05208 20.1563 0.25 16.7083 0.25ZM16.7083 10.6667H6.29167C3.98959 10.6667 2.12501 8.80208 2.12501 6.5C2.12501 4.19792 3.98959 2.33333 6.29167 2.33333H16.7083C19.0104 2.33333 20.875 4.19792 20.875 6.5C20.875 8.80208 19.0104 10.6667 16.7083 10.6667ZM6.29167 3.375C4.56251 3.375 3.16667 4.77083 3.16667 6.5C3.16667 8.22917 4.56251 9.625 6.29167 9.625C8.02084 9.625 9.41667 8.22917 9.41667 6.5C9.41667 4.77083 8.02084 3.375 6.29167 3.375Z" fill="white"/>
</svg>
