<svg width="23" height="13" viewBox="0 0 23 13" fill="none" xmlns="http://www.w3.org/2000/svg">
<path d="M6.29177 0.25H16.7084C20.1564 0.25 22.9584 3.05208 22.9584 6.5C22.9584 9.94792 20.1564 12.75 16.7084 12.75H6.29177C2.84385 12.75 0.0417671 9.94792 0.0417671 6.5C0.0417671 3.05208 2.84385 0.25 6.29177 0.25ZM6.29177 10.6667H16.7084C19.0105 10.6667 20.8751 8.80208 20.8751 6.5C20.8751 4.19792 19.0105 2.33333 16.7084 2.33333H6.29177C3.98968 2.33333 2.1251 4.19792 2.1251 6.5C2.1251 8.80208 3.98968 10.6667 6.29177 10.6667ZM16.7084 3.375C18.4376 3.375 19.8334 4.77083 19.8334 6.5C19.8334 8.22917 18.4376 9.625 16.7084 9.625C14.9793 9.625 13.5834 8.22917 13.5834 6.5C13.5834 4.77083 14.9793 3.375 16.7084 3.375Z" fill="#00FF48"/>
</svg>
